<svg xmlns="http://www.w3.org/2000/svg" width="24" height="24" viewBox="0 0 24 24" fill="none">
    <g clip-path="url(#clip0_2389_5533)">
        <path
            d="M12 24C18.6274 24 24 18.6274 24 12C24 5.37258 18.6274 0 12 0C5.37258 0 0 5.37258 0 12C0 18.6274 5.37258 24 12 24Z"
            fill="#FF0420" />
        <path
            d="M8.70355 15.3601C7.97976 15.3601 7.38676 15.1859 6.92447 14.8375C6.46833 14.4828 6.24023 13.9788 6.24023 13.3255C6.24023 13.1886 6.25545 13.0206 6.28583 12.8215C6.36494 12.3735 6.47745 11.8353 6.62342 11.2068C7.03699 9.49569 8.10446 8.64014 9.82574 8.64014C10.2941 8.64014 10.7137 8.72102 11.0847 8.88282C11.4558 9.03834 11.7477 9.27479 11.9606 9.59212C12.1735 9.90326 12.2799 10.2766 12.2799 10.7122C12.2799 10.8428 12.2647 11.0077 12.2343 11.2068C12.1431 11.7606 12.0336 12.2988 11.9059 12.8215C11.693 13.6739 11.325 14.3117 10.8019 14.7348C10.2789 15.1517 9.5794 15.3601 8.70355 15.3601ZM8.83128 14.0161C9.17188 14.0161 9.46079 13.9135 9.69801 13.7081C9.94127 13.5028 10.1147 13.1886 10.218 12.7654C10.3579 12.1806 10.4644 11.6704 10.5373 11.2348C10.5617 11.1041 10.5738 10.9703 10.5738 10.8334C10.5738 10.2672 10.285 9.98414 9.70713 9.98414C9.36652 9.98414 9.07459 10.0868 8.83128 10.2922C8.59406 10.4974 8.42375 10.8117 8.32036 11.2348C8.21087 11.6517 8.10139 12.1619 7.99195 12.7654C7.96761 12.8899 7.95542 13.0206 7.95542 13.1575C7.95542 13.7299 8.24736 14.0161 8.83128 14.0161Z"
            fill="white" />
        <path
            d="M12.6975 15.2668C12.6306 15.2668 12.5789 15.245 12.5423 15.2014C12.5119 15.1516 12.5028 15.0957 12.515 15.0334L13.774 8.96677C13.7862 8.89833 13.8196 8.84231 13.8744 8.79877C13.9291 8.75519 13.9869 8.7334 14.0477 8.7334H16.4745C17.1497 8.7334 17.691 8.87653 18.0985 9.16276C18.5121 9.44898 18.7189 9.86274 18.7189 10.4041C18.7189 10.5597 18.7006 10.7214 18.6642 10.8894C18.5121 11.605 18.2049 12.1339 17.7426 12.4761C17.2865 12.8183 16.66 12.9894 15.8633 12.9894H14.6316L14.2119 15.0334C14.1998 15.1018 14.1663 15.1579 14.1115 15.2014C14.0568 15.245 13.999 15.2668 13.9382 15.2668H12.6975ZM15.9271 11.7014C16.1826 11.7014 16.4046 11.6299 16.5931 11.4868C16.7877 11.3436 16.9155 11.1383 16.9763 10.8707C16.9946 10.765 17.0037 10.6716 17.0037 10.5908C17.0037 10.4103 16.952 10.2734 16.8486 10.1801C16.7452 10.0805 16.5688 10.0307 16.3194 10.0307H15.2246L14.8779 11.7014H15.9271Z"
            fill="white" />
    </g>
    <defs>
        <clipPath id="clip0_2389_5533">
            <rect width="24" height="24" fill="white" />
        </clipPath>
    </defs>
</svg>