<svg width="50" height="50" viewBox="0 0 50 50" fill="none" xmlns="http://www.w3.org/2000/svg">
    <path
        d="M1 25C1 11.7452 11.7452 1 25 1C38.2548 1 49 11.7452 49 25C49 38.2548 38.2548 49 25 49C11.7452 49 1 38.2548 1 25Z"
        fill="white" />
    <path
        d="M1 25C1 11.7452 11.7452 1 25 1C38.2548 1 49 11.7452 49 25C49 38.2548 38.2548 49 25 49C11.7452 49 1 38.2548 1 25Z"
        stroke="url(#paint0_linear_2417_5595)" stroke-width="2" />
    <path
        d="M21.5 25.5C21.5 25.5 22.8125 27 25 27C27.1875 27 28.5 25.5 28.5 25.5M27.75 20.5H27.76M22.25 20.5H22.26M20 31V33.3355C20 33.8684 20 34.1348 20.1092 34.2716C20.2042 34.3906 20.3483 34.4599 20.5005 34.4597C20.6756 34.4595 20.8837 34.2931 21.2998 33.9602L23.6852 32.0518C24.1725 31.662 24.4162 31.4671 24.6875 31.3285C24.9282 31.2055 25.1844 31.1156 25.4492 31.0613C25.7477 31 26.0597 31 26.6837 31H29.2C30.8802 31 31.7202 31 32.362 30.673C32.9265 30.3854 33.3854 29.9265 33.673 29.362C34 28.7202 34 27.8802 34 26.2V20.8C34 19.1198 34 18.2798 33.673 17.638C33.3854 17.0735 32.9265 16.6146 32.362 16.327C31.7202 16 30.8802 16 29.2 16H20.8C19.1198 16 18.2798 16 17.638 16.327C17.0735 16.6146 16.6146 17.0735 16.327 17.638C16 18.2798 16 19.1198 16 20.8V27C16 27.93 16 28.395 16.1022 28.7765C16.3796 29.8117 17.1883 30.6204 18.2235 30.8978C18.605 31 19.07 31 20 31ZM28.25 20.5C28.25 20.7761 28.0261 21 27.75 21C27.4739 21 27.25 20.7761 27.25 20.5C27.25 20.2239 27.4739 20 27.75 20C28.0261 20 28.25 20.2239 28.25 20.5ZM22.75 20.5C22.75 20.7761 22.5261 21 22.25 21C21.9739 21 21.75 20.7761 21.75 20.5C21.75 20.2239 21.9739 20 22.25 20C22.5261 20 22.75 20.2239 22.75 20.5Z"
        stroke="url(#paint1_linear_2417_5595)" stroke-width="1.66667" stroke-linecap="round" stroke-linejoin="round" />
    <defs>
        <linearGradient id="paint0_linear_2417_5595" x1="1" y1="1" x2="55.6794" y2="34.1237"
            gradientUnits="userSpaceOnUse">
            <stop stop-color="#FC925B" />
            <stop offset="0.239583" stop-color="#E0D5FA" />
            <stop offset="0.494792" stop-color="#44B9ED" />
            <stop offset="0.755208" stop-color="#90B1A9" />
            <stop offset="1" stop-color="#F7949E" />
        </linearGradient>
        <linearGradient id="paint1_linear_2417_5595" x1="16.6" y1="15.4" x2="31.0404" y2="38.9838"
            gradientUnits="userSpaceOnUse">
            <stop stop-color="#FC925B" />
            <stop offset="0.239583" stop-color="#E0D5FA" />
            <stop offset="0.494792" stop-color="#44B9ED" />
            <stop offset="0.755208" stop-color="#90B1A9" />
            <stop offset="1" stop-color="#F7949E" />
        </linearGradient>
    </defs>
</svg>