<svg xmlns="http://www.w3.org/2000/svg" width="48" height="48" viewBox="0 0 48 48" fill="none">
    <g clip-path="url(#clip0_2335_9387)">
        <path
            d="M23.5383 2.31016C23.7091 1.89951 24.2909 1.89951 24.4617 2.31016L30.2308 16.1808C30.3028 16.3539 30.4656 16.4722 30.6525 16.4872L45.6271 17.6877C46.0704 17.7233 46.2501 18.2765 45.9124 18.5658L34.5033 28.3389C34.361 28.4609 34.2988 28.6523 34.3423 28.8346L37.8279 43.4473C37.9311 43.8799 37.4605 44.2218 37.0809 43.99L24.2606 36.1594C24.1006 36.0617 23.8994 36.0617 23.7394 36.1594L10.9191 43.99C10.5395 44.2218 10.0689 43.8799 10.1721 43.4473L13.6577 28.8346C13.7012 28.6523 13.639 28.4609 13.4967 28.3389L2.08762 18.5658C1.74985 18.2765 1.92962 17.7233 2.37294 17.6877L17.3475 16.4872C17.5344 16.4722 17.6972 16.3539 17.7692 16.1808L23.5383 2.31016Z"
            fill="#FDB022" />
    </g>
    <defs>
        <clipPath id="clip0_2335_9387">
            <rect width="48" height="48" fill="white" />
        </clipPath>
    </defs>
</svg>